Coordinates
version=1
nRows=11
nColumns=32
inDegrees=yes

Units are S.I. units (second, meters, Newtons, ...)
If the header above contains a line with 'inDegrees', this indicates whether rotational values are in degrees (yes) or radians (no).

endheader
time	pelvis_tilt	pelvis_list	pelvis_rotation	pelvis_tx	pelvis_ty	pelvis_tz	hip_flexion_r	hip_adduction_r	hip_rotation_r	knee_angle_r	knee_adduction_r	med_cond_adduction_r	lat_cond_adduction_r	patella_r_constrained_knee_angle	hip_flexion_l	hip_adduction_l	hip_rotation_l	knee_angle_l	knee_adduction_l	med_cond_adduction_l	lat_cond_adduction_l	patella_l_constrained_knee_angle	lumbar_extension	lumbar_bending	lumbar_rotation	ankle_angle_r	subtalar_angle_r	mtp_angle_r	ankle_angle_l	subtalar_angle_l	mtp_angle_l
      1.61000000	      3.26986741	     -2.15011852	     -3.00370240	      0.86657650	      0.81456833	      0.18165269	      3.11192649	      6.11104399	      1.25180739	    -20.76987613	     -0.26859029	      0.00000000	      0.00000000	     -0.36250272	     25.11229748	     -3.33512104	     -8.47807864	    -62.39652772	     -5.44969805	     -0.00000000	     -0.00000000	     -1.08902485	    -13.42052206	      1.63371796	     -1.86828825	      8.15136843	     -0.90398807	      0.00000000	     -8.82060361	    -12.16579983	     -0.00000000
      1.61500000	      3.39425081	     -2.33940044	     -3.14443628	      0.87261217	      0.81510903	      0.18197851	      1.79953221	      6.41023356	      1.89392637	    -19.36056041	     -0.25578218	      0.00000000	      0.00000000	     -0.33790552	     25.54057832	     -3.74539460	     -8.21902839	    -61.21083236	     -5.05816628	      0.00000000	      0.00000000	     -1.06833056	    -13.56099852	      1.82572498	     -1.68306554	      7.04495768	     -2.65282132	      0.00000000	     -8.42004034	    -11.80912384	     -0.00000000
      1.62000000	      3.36112149	     -2.18928062	     -3.58083061	      0.87835796	      0.81517934	      0.18212275	      1.18069315	      6.16923943	      2.18222032	    -18.99497283	     -0.25147331	     -0.00000000	     -0.00000000	     -0.33152482	     26.10563326	     -3.78403972	     -8.31613981	    -59.94111534	     -4.79872137	     -0.00000000	     -0.00000000	     -1.04616982	    -13.56361146	      1.65516013	     -1.33007132	      7.27948672	     -2.42819915	      0.00000000	     -8.28182184	    -11.61855755	      0.00000000
      1.62500000	      3.34493661	     -2.11075260	     -3.94961462	      0.88412877	      0.81516030	      0.18222536	      0.56494024	      6.00033330	      2.34218462	    -18.67409417	     -0.25095128	     -0.00000000	     -0.00000000	     -0.32592443	     26.62592971	     -3.89403995	     -8.31253907	    -58.60090106	     -4.47964790	     -0.00000000	     -0.00000000	     -1.02277867	    -13.57973787	      1.57748642	     -1.10171269	      7.58279769	     -2.14143090	     -0.00000000	     -8.19808201	    -11.46452150	      0.00000000
      1.63000000	      3.34599753	     -1.96244653	     -4.26167061	      0.88996348	      0.81507071	      0.18215805	      0.00290801	      5.70988872	      2.16297817	    -18.48634711	     -0.30270272	      0.00000000	      0.00000000	     -0.32264762	     27.08126333	     -3.84618618	     -8.36038954	    -57.13828810	     -4.31751068	      0.00000000	      0.00000000	     -0.99725126	    -13.61838550	      1.44895753	     -0.95263318	      8.06712108	     -1.40779461	      0.00000000	     -8.17658656	    -11.27214010	      0.00000000
      1.63500000	      3.30197909	     -1.90593159	     -4.67704175	      0.89572703	      0.81486994	      0.18227986	     -0.58005991	      5.55660510	      2.41163193	    -18.16455979	     -0.29563177	     -0.00000000	     -0.00000000	     -0.31703138	     27.54899079	     -4.01062208	     -8.42828560	    -55.62319523	     -4.03202546	     -0.00000000	     -0.00000000	     -0.97080790	    -13.61512628	      1.41526497	     -0.68994485	      8.41157017	     -1.14021966	     -0.00000000	     -8.26020984	    -11.22382437	     -0.00000000
      1.64000000	      3.27959323	     -1.87331816	     -5.03391020	      0.90150704	      0.81459511	      0.18234273	     -1.15365184	      5.41608795	      2.46820915	    -17.90588070	     -0.31411214	      0.00000000	      0.00000000	     -0.31251657	     27.95949864	     -4.17008875	     -8.45924309	    -54.01495945	     -3.76896065	      0.00000000	      0.00000000	     -0.94273889	    -13.64754311	      1.40839787	     -0.43637469	      8.83621652	     -0.71023449	      0.00000000	     -8.44305490	    -11.15873904	      0.00000000
      1.64500000	      3.20796750	     -1.97168463	     -5.40067939	      0.90724836	      0.81417345	      0.18256927	     -1.76511801	      5.48044433	      2.77188958	    -17.48807971	     -0.35879605	     -0.00000000	     -0.00000000	     -0.30522457	     28.40679897	     -4.56738151	     -8.33487470	    -52.41019624	     -3.28960858	     -0.00000000	     -0.00000000	     -0.91473049	    -13.63653628	      1.51849868	     -0.19147773	      9.11082781	     -0.65327354	     -0.00000000	     -8.68096923	    -11.25194962	      0.00000000
      1.65000000	      3.20688798	     -2.00474783	     -5.65046855	      0.91312897	      0.81375851	      0.18245122	     -2.36393741	      5.39000444	      2.61394911	    -17.24985765	     -0.40660261	      0.00000000	      0.00000000	     -0.30106681	     28.72978212	     -4.72726666	     -8.29056929	    -50.66391505	     -3.08575040	     -0.00000000	     -0.00000000	     -0.88425213	    -13.69062047	      1.62618452	     -0.03981832	      9.63408290	     -0.00616040	      0.00000000	     -8.94320428	    -11.07556930	     -0.00000000
      1.65500000	      3.19069716	     -2.05250418	     -5.99956808	      0.91895454	      0.81331174	      0.18250552	     -2.97125530	      5.32789837	      2.71285471	    -16.96004112	     -0.42413613	     -0.00000000	     -0.00000000	     -0.29600856	     29.00513928	     -4.99963901	     -8.35223858	    -48.81849284	     -2.81550258	      0.00000000	      0.00000000	     -0.85204344	    -13.74360087	      1.70937987	      0.17844210	     10.07227835	      0.37046541	     -0.00000000	     -9.35059576	    -11.00417554	     -0.00000000
      1.66000000	      3.15838586	     -2.16094213	     -6.32347968	      0.92477766	      0.81274548	      0.18255636	     -3.56527047	      5.33919126	      2.80167855	    -16.67199121	     -0.44944687	      0.00000000	      0.00000000	     -0.29098114	     29.26589293	     -5.33169424	     -8.33706338	    -46.91455539	     -2.51721120	      0.00000000	      0.00000000	     -0.81881346	    -13.79481239	      1.87880202	      0.43293255	     10.48767546	      0.71367200	     -0.00000000	     -9.85522297	    -10.91995386	      0.00000000
